<svg width="128" height="47" viewBox="0 0 128 47" fill="none" xmlns="http://www.w3.org/2000/svg">
<path fill-rule="evenodd" clip-rule="evenodd" d="M14.885 7.48847C6.66425 9.69122 1.78568 18.1411 3.98843 26.3619L6.65131 36.2999C8.77519 44.2263 18.8942 46.5583 24.273 40.3609C26.9488 37.2778 31.2006 36.0791 35.0928 37.3102L35.5076 37.4414C43.7152 40.0375 51.5521 32.5422 49.324 24.2271L48.6523 21.72L46.8208 14.885C44.6181 6.66424 36.1682 1.78567 27.9474 3.98842L14.885 7.48847ZM16.3952 26.4717C18.3173 25.7539 19.2935 23.6138 18.5757 21.6918C17.8578 19.7697 15.7178 18.7935 13.7957 19.5113C11.8736 20.2291 10.8974 22.3692 11.6152 24.2913C12.3331 26.2134 14.4731 27.1896 16.3952 26.4717ZM27.1139 26.4589C28.7828 26.0117 29.7732 24.2963 29.326 22.6273L23.2824 24.2467C23.7295 25.9156 25.445 26.9061 27.1139 26.4589ZM33.9184 12.2304C33.2362 12.4132 32.8314 13.1144 33.0142 13.7966L33.0894 14.0773C33.3138 14.9146 32.8169 15.7751 31.9797 15.9995L31.6988 16.0747C31.0166 16.2575 30.6117 16.9588 30.7945 17.641C30.9773 18.3232 31.6785 18.728 32.3607 18.5452L32.6416 18.4699C33.4789 18.2456 34.3394 18.7425 34.5638 19.5797L34.639 19.8604C34.8218 20.5426 35.523 20.9475 36.2052 20.7647C36.8874 20.5819 37.2923 19.8807 37.1095 19.1985L37.0342 18.9177C36.8099 18.0805 37.3067 17.2199 38.1439 16.9956L38.4246 16.9204C39.1068 16.7376 39.5116 16.0364 39.3288 15.3542C39.1461 14.672 38.4448 14.2671 37.7626 14.4499L37.482 14.5251C36.6448 14.7495 35.7842 14.2526 35.5599 13.4154L35.4847 13.1346C35.3019 12.4524 34.6006 12.0476 33.9184 12.2304Z" fill="url(#paint0_linear_186_588)"/>
<path d="M59.0288 11V3H60.1968V5.97266H60.2671C60.3348 5.84766 60.4325 5.70312 60.5601 5.53906C60.6877 5.375 60.8647 5.23177 61.0913 5.10937C61.3179 4.98438 61.6174 4.92188 61.9897 4.92188C62.4741 4.92188 62.9064 5.04427 63.2866 5.28906C63.6668 5.53385 63.965 5.88672 64.1812 6.34766C64.3999 6.80859 64.5093 7.36328 64.5093 8.01172C64.5093 8.66016 64.4012 9.21615 64.1851 9.67969C63.9689 10.1406 63.672 10.4961 63.2944 10.7461C62.9168 10.9935 62.4858 11.1172 62.0015 11.1172C61.6369 11.1172 61.3387 11.056 61.1069 10.9336C60.8778 10.8112 60.6981 10.668 60.5679 10.5039C60.4377 10.3398 60.3374 10.194 60.2671 10.0664H60.1694V11H59.0288ZM60.1733 8C60.1733 8.42187 60.2345 8.79167 60.3569 9.10938C60.4793 9.42708 60.6564 9.67578 60.8882 9.85547C61.12 10.0326 61.4038 10.1211 61.7397 10.1211C62.0887 10.1211 62.3804 10.0286 62.6147 9.84375C62.8491 9.65625 63.0262 9.40234 63.146 9.08203C63.2684 8.76172 63.3296 8.40104 63.3296 8C63.3296 7.60417 63.2697 7.2487 63.1499 6.93359C63.0327 6.61849 62.8556 6.36979 62.6187 6.1875C62.3843 6.00521 62.0913 5.91406 61.7397 5.91406C61.4012 5.91406 61.1147 6.0013 60.8804 6.17578C60.6486 6.35026 60.4728 6.59375 60.353 6.90625C60.2332 7.21875 60.1733 7.58333 60.1733 8ZM68.4067 11.1211C67.8156 11.1211 67.3065 10.9948 66.8794 10.7422C66.4549 10.487 66.1268 10.1289 65.895 9.66797C65.6659 9.20443 65.5513 8.66146 65.5513 8.03906C65.5513 7.42448 65.6659 6.88281 65.895 6.41406C66.1268 5.94531 66.4497 5.57943 66.8638 5.31641C67.2804 5.05339 67.7674 4.92188 68.3247 4.92188C68.6632 4.92188 68.9914 4.97786 69.3091 5.08984C69.6268 5.20182 69.9119 5.3776 70.1646 5.61719C70.4172 5.85677 70.6164 6.16797 70.7622 6.55078C70.908 6.93099 70.981 7.39323 70.981 7.9375V8.35156H66.2114V7.47656H69.8364C69.8364 7.16927 69.7739 6.89714 69.6489 6.66016C69.5239 6.42057 69.3481 6.23177 69.1216 6.09375C68.8976 5.95573 68.6346 5.88672 68.3325 5.88672C68.0044 5.88672 67.7179 5.96745 67.4731 6.12891C67.231 6.28776 67.0435 6.49609 66.9106 6.75391C66.7804 7.00911 66.7153 7.28646 66.7153 7.58594V8.26953C66.7153 8.67057 66.7856 9.01172 66.9263 9.29297C67.0695 9.57422 67.2687 9.78906 67.5239 9.9375C67.7791 10.0833 68.0773 10.1562 68.4185 10.1562C68.6398 10.1562 68.8416 10.125 69.0239 10.0625C69.2062 9.9974 69.3638 9.90104 69.4966 9.77344C69.6294 9.64583 69.731 9.48828 69.8013 9.30078L70.9067 9.5C70.8182 9.82552 70.6593 10.1107 70.4302 10.3555C70.2036 10.5977 69.9185 10.7865 69.5747 10.9219C69.2336 11.0547 68.8442 11.1211 68.4067 11.1211ZM75.0776 5V5.9375L71.8003 5.9375V5L75.0776 5ZM72.6792 3.5625H73.8472V9.23828C73.8472 9.46484 73.881 9.63542 73.9487 9.75C74.0164 9.86198 74.1037 9.9388 74.2104 9.98047C74.3198 10.0195 74.4383 10.0391 74.5659 10.0391C74.6597 10.0391 74.7417 10.0326 74.812 10.0195C74.8823 10.0065 74.937 9.99609 74.9761 9.98828L75.187 10.9531C75.1193 10.9792 75.0229 11.0052 74.8979 11.0313C74.7729 11.0599 74.6167 11.0755 74.4292 11.0781C74.1219 11.0833 73.8354 11.0286 73.5698 10.9141C73.3042 10.7995 73.0894 10.6224 72.9253 10.3828C72.7612 10.1432 72.6792 9.84245 72.6792 9.48047V3.5625ZM78.1157 11.1328C77.7355 11.1328 77.3918 11.0625 77.0845 10.9219C76.7772 10.7786 76.5337 10.5716 76.354 10.3008C76.1769 10.0299 76.0884 9.69792 76.0884 9.30469C76.0884 8.96615 76.1535 8.6875 76.2837 8.46875C76.4139 8.25 76.5897 8.07682 76.811 7.94922C77.0324 7.82161 77.2798 7.72526 77.5532 7.66016C77.8267 7.59505 78.1053 7.54557 78.3892 7.51172C78.7485 7.47005 79.0402 7.4362 79.2642 7.41016C79.4881 7.38151 79.6509 7.33594 79.7524 7.27344C79.854 7.21094 79.9048 7.10937 79.9048 6.96875V6.94141C79.9048 6.60026 79.8084 6.33594 79.6157 6.14844C79.4256 5.96094 79.1418 5.86719 78.7642 5.86719C78.3709 5.86719 78.061 5.95443 77.8345 6.12891C77.6105 6.30078 77.4556 6.49219 77.3696 6.70313L76.272 6.45312C76.4022 6.08854 76.5923 5.79427 76.8423 5.57031C77.0949 5.34375 77.3853 5.17969 77.7134 5.07812C78.0415 4.97396 78.3866 4.92188 78.7485 4.92188C78.9881 4.92188 79.242 4.95052 79.5103 5.00781C79.7811 5.0625 80.0337 5.16406 80.2681 5.3125C80.505 5.46094 80.6991 5.67318 80.8501 5.94922C81.0011 6.22266 81.0767 6.57813 81.0767 7.01563V11H79.936V10.1797H79.8892C79.8136 10.3307 79.7004 10.4792 79.5493 10.625C79.3983 10.7708 79.2043 10.8919 78.9673 10.9883C78.7303 11.0846 78.4465 11.1328 78.1157 11.1328ZM78.3696 10.1953C78.6925 10.1953 78.9686 10.1315 79.1978 10.0039C79.4295 9.8763 79.6053 9.70964 79.7251 9.50391C79.8475 9.29557 79.9087 9.07292 79.9087 8.83594V8.0625C79.867 8.10417 79.7863 8.14323 79.6665 8.17969C79.5493 8.21354 79.4152 8.24349 79.2642 8.26953C79.1131 8.29297 78.966 8.3151 78.8228 8.33594C78.6795 8.35417 78.5597 8.36979 78.4634 8.38281C78.2368 8.41146 78.0298 8.45964 77.8423 8.52734C77.6574 8.59505 77.509 8.69271 77.397 8.82031C77.2876 8.94531 77.2329 9.11198 77.2329 9.32031C77.2329 9.60937 77.3397 9.82812 77.5532 9.97656C77.7668 10.1224 78.0389 10.1953 78.3696 10.1953Z" fill="url(#paint1_radial_186_588)"/>
<path d="M59.0288 11V3H60.1968V5.97266H60.2671C60.3348 5.84766 60.4325 5.70312 60.5601 5.53906C60.6877 5.375 60.8647 5.23177 61.0913 5.10937C61.3179 4.98438 61.6174 4.92188 61.9897 4.92188C62.4741 4.92188 62.9064 5.04427 63.2866 5.28906C63.6668 5.53385 63.965 5.88672 64.1812 6.34766C64.3999 6.80859 64.5093 7.36328 64.5093 8.01172C64.5093 8.66016 64.4012 9.21615 64.1851 9.67969C63.9689 10.1406 63.672 10.4961 63.2944 10.7461C62.9168 10.9935 62.4858 11.1172 62.0015 11.1172C61.6369 11.1172 61.3387 11.056 61.1069 10.9336C60.8778 10.8112 60.6981 10.668 60.5679 10.5039C60.4377 10.3398 60.3374 10.194 60.2671 10.0664H60.1694V11H59.0288ZM60.1733 8C60.1733 8.42187 60.2345 8.79167 60.3569 9.10938C60.4793 9.42708 60.6564 9.67578 60.8882 9.85547C61.12 10.0326 61.4038 10.1211 61.7397 10.1211C62.0887 10.1211 62.3804 10.0286 62.6147 9.84375C62.8491 9.65625 63.0262 9.40234 63.146 9.08203C63.2684 8.76172 63.3296 8.40104 63.3296 8C63.3296 7.60417 63.2697 7.2487 63.1499 6.93359C63.0327 6.61849 62.8556 6.36979 62.6187 6.1875C62.3843 6.00521 62.0913 5.91406 61.7397 5.91406C61.4012 5.91406 61.1147 6.0013 60.8804 6.17578C60.6486 6.35026 60.4728 6.59375 60.353 6.90625C60.2332 7.21875 60.1733 7.58333 60.1733 8ZM68.4067 11.1211C67.8156 11.1211 67.3065 10.9948 66.8794 10.7422C66.4549 10.487 66.1268 10.1289 65.895 9.66797C65.6659 9.20443 65.5513 8.66146 65.5513 8.03906C65.5513 7.42448 65.6659 6.88281 65.895 6.41406C66.1268 5.94531 66.4497 5.57943 66.8638 5.31641C67.2804 5.05339 67.7674 4.92188 68.3247 4.92188C68.6632 4.92188 68.9914 4.97786 69.3091 5.08984C69.6268 5.20182 69.9119 5.3776 70.1646 5.61719C70.4172 5.85677 70.6164 6.16797 70.7622 6.55078C70.908 6.93099 70.981 7.39323 70.981 7.9375V8.35156H66.2114V7.47656H69.8364C69.8364 7.16927 69.7739 6.89714 69.6489 6.66016C69.5239 6.42057 69.3481 6.23177 69.1216 6.09375C68.8976 5.95573 68.6346 5.88672 68.3325 5.88672C68.0044 5.88672 67.7179 5.96745 67.4731 6.12891C67.231 6.28776 67.0435 6.49609 66.9106 6.75391C66.7804 7.00911 66.7153 7.28646 66.7153 7.58594V8.26953C66.7153 8.67057 66.7856 9.01172 66.9263 9.29297C67.0695 9.57422 67.2687 9.78906 67.5239 9.9375C67.7791 10.0833 68.0773 10.1562 68.4185 10.1562C68.6398 10.1562 68.8416 10.125 69.0239 10.0625C69.2062 9.9974 69.3638 9.90104 69.4966 9.77344C69.6294 9.64583 69.731 9.48828 69.8013 9.30078L70.9067 9.5C70.8182 9.82552 70.6593 10.1107 70.4302 10.3555C70.2036 10.5977 69.9185 10.7865 69.5747 10.9219C69.2336 11.0547 68.8442 11.1211 68.4067 11.1211ZM75.0776 5V5.9375L71.8003 5.9375V5L75.0776 5ZM72.6792 3.5625H73.8472V9.23828C73.8472 9.46484 73.881 9.63542 73.9487 9.75C74.0164 9.86198 74.1037 9.9388 74.2104 9.98047C74.3198 10.0195 74.4383 10.0391 74.5659 10.0391C74.6597 10.0391 74.7417 10.0326 74.812 10.0195C74.8823 10.0065 74.937 9.99609 74.9761 9.98828L75.187 10.9531C75.1193 10.9792 75.0229 11.0052 74.8979 11.0313C74.7729 11.0599 74.6167 11.0755 74.4292 11.0781C74.1219 11.0833 73.8354 11.0286 73.5698 10.9141C73.3042 10.7995 73.0894 10.6224 72.9253 10.3828C72.7612 10.1432 72.6792 9.84245 72.6792 9.48047V3.5625ZM78.1157 11.1328C77.7355 11.1328 77.3918 11.0625 77.0845 10.9219C76.7772 10.7786 76.5337 10.5716 76.354 10.3008C76.1769 10.0299 76.0884 9.69792 76.0884 9.30469C76.0884 8.96615 76.1535 8.6875 76.2837 8.46875C76.4139 8.25 76.5897 8.07682 76.811 7.94922C77.0324 7.82161 77.2798 7.72526 77.5532 7.66016C77.8267 7.59505 78.1053 7.54557 78.3892 7.51172C78.7485 7.47005 79.0402 7.4362 79.2642 7.41016C79.4881 7.38151 79.6509 7.33594 79.7524 7.27344C79.854 7.21094 79.9048 7.10937 79.9048 6.96875V6.94141C79.9048 6.60026 79.8084 6.33594 79.6157 6.14844C79.4256 5.96094 79.1418 5.86719 78.7642 5.86719C78.3709 5.86719 78.061 5.95443 77.8345 6.12891C77.6105 6.30078 77.4556 6.49219 77.3696 6.70313L76.272 6.45312C76.4022 6.08854 76.5923 5.79427 76.8423 5.57031C77.0949 5.34375 77.3853 5.17969 77.7134 5.07812C78.0415 4.97396 78.3866 4.92188 78.7485 4.92188C78.9881 4.92188 79.242 4.95052 79.5103 5.00781C79.7811 5.0625 80.0337 5.16406 80.2681 5.3125C80.505 5.46094 80.6991 5.67318 80.8501 5.94922C81.0011 6.22266 81.0767 6.57813 81.0767 7.01563V11H79.936V10.1797H79.8892C79.8136 10.3307 79.7004 10.4792 79.5493 10.625C79.3983 10.7708 79.2043 10.8919 78.9673 10.9883C78.7303 11.0846 78.4465 11.1328 78.1157 11.1328ZM78.3696 10.1953C78.6925 10.1953 78.9686 10.1315 79.1978 10.0039C79.4295 9.8763 79.6053 9.70964 79.7251 9.50391C79.8475 9.29557 79.9087 9.07292 79.9087 8.83594V8.0625C79.867 8.10417 79.7863 8.14323 79.6665 8.17969C79.5493 8.21354 79.4152 8.24349 79.2642 8.26953C79.1131 8.29297 78.966 8.3151 78.8228 8.33594C78.6795 8.35417 78.5597 8.36979 78.4634 8.38281C78.2368 8.41146 78.0298 8.45964 77.8423 8.52734C77.6574 8.59505 77.509 8.69271 77.397 8.82031C77.2876 8.94531 77.2329 9.11198 77.2329 9.32031C77.2329 9.60937 77.3397 9.82812 77.5532 9.97656C77.7668 10.1224 78.0389 10.1953 78.3696 10.1953Z" fill="#99F9FF"/>
<path d="M59.5562 17.1818H66.9283L71.9993 29.5398H72.255L77.326 17.1818H84.6982V39H78.9027V26.3864H78.7323L73.8743 38.8295H70.38L65.5221 26.3011H65.3516V39H59.5562V17.1818ZM101.674 24.3835C101.582 24.0071 101.436 23.6768 101.238 23.3928C101.039 23.1016 100.79 22.8565 100.492 22.6577C100.201 22.4517 99.8598 22.299 99.4691 22.1996C99.0856 22.093 98.663 22.0398 98.2014 22.0398C97.2071 22.0398 96.3584 22.2777 95.6552 22.7536C94.9592 23.2294 94.4265 23.9148 94.0572 24.8097C93.695 25.7045 93.5139 26.7841 93.5139 28.0483C93.5139 29.3267 93.6879 30.4205 94.0359 31.3295C94.3839 32.2386 94.9024 32.9347 95.5913 33.4176C96.2802 33.9006 97.1361 34.142 98.1588 34.142C99.0608 34.142 99.8101 34.0107 100.407 33.7479C101.01 33.4851 101.461 33.1122 101.76 32.6293C102.058 32.1463 102.207 31.5781 102.207 30.9247L103.23 31.0312H98.244V26.8125H107.917V29.8381C107.917 31.8267 107.495 33.5277 106.65 34.9411C105.811 36.3473 104.654 37.4268 103.177 38.1797C101.706 38.9254 100.02 39.2983 98.1162 39.2983C95.9926 39.2983 94.1282 38.8473 92.5231 37.9453C90.918 37.0433 89.6645 35.7578 88.7625 34.0888C87.8676 32.4197 87.4201 30.4347 87.4201 28.1335C87.4201 26.3295 87.6936 24.7315 88.2405 23.3395C88.7944 21.9474 89.5615 20.772 90.5416 19.8132C91.5217 18.8473 92.6545 18.1193 93.94 17.6293C95.2255 17.1321 96.6034 16.8835 98.0736 16.8835C99.3662 16.8835 100.566 17.0682 101.674 17.4375C102.789 17.7997 103.773 18.3182 104.625 18.9929C105.485 19.6605 106.177 20.4524 106.703 21.3686C107.228 22.2848 107.548 23.2898 107.662 24.3835H101.674ZM110.679 39V17.1818H116.602V34.2273H125.424V39H110.679Z" fill="url(#paint2_linear_186_588)"/>
<defs>
<linearGradient id="paint0_linear_186_588" x1="12.2809" y1="40.5949" x2="39.186" y2="18.7529" gradientUnits="userSpaceOnUse">
<stop stop-color="#00F0FF"/>
<stop offset="1" stop-color="#99F9FF"/>
</linearGradient>
<radialGradient id="paint1_radial_186_588" cx="0" cy="0" r="1" gradientUnits="userSpaceOnUse" gradientTransform="translate(61.1499 13) rotate(-35.5094) scale(23.9552 21.0677)">
<stop offset="0.182292" stop-color="#77E7FF"/>
<stop offset="1" stop-color="#377BFF"/>
</radialGradient>
<linearGradient id="paint2_linear_186_588" x1="64.8816" y1="41.3043" x2="104.702" y2="13.6257" gradientUnits="userSpaceOnUse">
<stop stop-color="#00F0FF"/>
<stop offset="1" stop-color="#99F9FF"/>
</linearGradient>
</defs>
</svg>
