<svg width="102" height="102" viewBox="0 0 102 102" fill="none" xmlns="http://www.w3.org/2000/svg">
<g clip-path="url(#clip0_524_2643)">
<rect x="1" y="1" width="100" height="100" rx="37" fill="white" fill-opacity="0.03"/>
<path fill-rule="evenodd" clip-rule="evenodd" d="M71.1356 30.3374C90.1512 32.8142 103.559 50.2372 101.082 69.2528L98.0876 92.2406C95.6995 110.575 73.7918 118.791 59.9366 106.548C53.0439 100.457 43.1914 99.0428 34.8639 102.949L33.9766 103.365C16.4164 111.603 -3.31457 97.1913 -0.80934 77.9574L-0.0539828 72.1582L2.00529 56.3481C4.48208 37.3325 21.9051 23.9251 40.9208 26.4019L71.1356 30.3374ZM26.9474 63.415C22.4411 62.3829 19.6247 57.8932 20.6568 53.387C21.6889 48.8807 26.1787 46.0643 30.6849 47.0964C35.1912 48.1285 38.0075 52.6182 36.9754 57.1245C35.9433 61.6308 31.4536 64.4471 26.9474 63.415ZM46.5294 71.1785C42.669 70.6757 39.9472 67.1386 40.45 63.2782L54.4297 65.0991C53.9269 68.9595 50.3898 71.6813 46.5294 71.1785ZM71.4692 51.385C73.0308 51.6915 74.0482 53.2058 73.7418 54.7673L73.6157 55.4099C73.2396 57.3264 74.4883 59.1849 76.4047 59.561L77.0477 59.6871C78.6092 59.9936 79.6267 61.5079 79.3202 63.0694C79.0138 64.631 77.4995 65.6485 75.9379 65.342L75.295 65.2159C73.3785 64.8398 71.5201 66.0885 71.144 68.0049L71.0179 68.6475C70.7114 70.2091 69.1971 71.2265 67.6356 70.9201C66.074 70.6136 65.0566 69.0993 65.363 67.5378L65.4891 66.895C65.8652 64.9787 64.6166 63.1203 62.7002 62.7442L62.0578 62.6181C60.4962 62.3117 59.4788 60.7974 59.7852 59.2358C60.0916 57.6743 61.6059 56.6568 63.1675 56.9633L63.8099 57.0893C65.7263 57.4654 67.5847 56.2168 67.9608 54.3004L68.0869 53.6576C68.3933 52.0961 69.9077 51.0786 71.4692 51.385Z" fill="url(#paint0_radial_524_2643)"/>
<path fill-rule="evenodd" clip-rule="evenodd" d="M37.4406 53.8871C38.2682 58.5493 35.1596 62.9997 30.4973 63.8273C25.835 64.6549 21.3846 61.5463 20.5571 56.884C19.7295 52.2217 22.8381 47.7713 27.5004 46.9437C32.1627 46.1161 36.6131 49.2248 37.4406 53.8871ZM30.3804 63.1685C34.6788 62.4055 37.5448 58.3024 36.7818 54.004C36.0188 49.7056 31.9157 46.8396 27.6173 47.6026C23.3189 48.3656 20.4529 52.4686 21.2159 56.767C21.9789 61.0654 26.082 63.9314 30.3804 63.1685Z" fill="url(#paint1_linear_524_2643)"/>
<path fill-rule="evenodd" clip-rule="evenodd" d="M54.4174 64.8703L54.3309 65.5188C53.8079 69.4396 50.2054 72.1941 46.2846 71.6711C42.3637 71.1481 39.6092 67.5456 40.1322 63.6247L40.2188 62.9763L54.4174 64.8703ZM40.7264 64.364C40.7336 64.1479 40.7515 63.9301 40.7807 63.7112L53.6824 65.4323C53.6532 65.6511 53.6135 65.866 53.5637 66.0764C52.8039 69.2912 49.7149 71.4686 46.3711 71.0226C43.0272 70.5765 40.617 67.6656 40.7264 64.364Z" fill="url(#paint2_linear_524_2643)"/>
<path fill-rule="evenodd" clip-rule="evenodd" d="M71.2976 51.6291C73.1083 51.9619 74.3063 53.6996 73.9736 55.5102V55.5102C73.6408 57.3208 74.8388 59.0584 76.6494 59.3912V59.3912C78.46 59.7239 79.658 61.4614 79.3252 63.272L79.3068 63.3719C78.9741 65.1825 77.2366 66.3805 75.426 66.0478V66.0478C73.6155 65.715 71.8779 66.9131 71.5452 68.7237V68.7237C71.2124 70.5343 69.4748 71.7324 67.6642 71.3997L67.5645 71.3814C65.7539 71.0486 64.5558 69.311 64.8886 67.5004V67.5004C65.2213 65.6897 64.0232 63.9521 62.2125 63.6194V63.6194C60.4018 63.2866 59.2036 61.5489 59.5364 59.7381L59.5546 59.6388C59.8874 57.8281 61.6252 56.6299 63.4359 56.9627V56.9627C65.2465 57.2955 66.9842 56.0974 67.317 54.2868V54.2868C67.6497 52.4761 69.3873 51.2781 71.198 51.6108L71.2976 51.6291ZM67.8532 55.0645C67.5204 56.8751 65.7828 58.0732 63.9722 57.7404L63.3648 57.6288C61.8894 57.3577 60.4736 58.3339 60.2025 59.8092V59.8092C59.9313 61.2846 60.9075 62.7004 62.3829 62.9715L62.9903 63.0831C64.801 63.4159 65.999 65.1535 65.6663 66.9641L65.5547 67.5713C65.2835 69.0466 66.2597 70.4624 67.7351 70.7336V70.7336C69.2104 71.0047 70.6262 70.0285 70.8974 68.5532L71.009 67.9459C71.3417 66.1353 73.0792 64.9373 74.8898 65.2701L75.4968 65.3816C76.9721 65.6528 78.3879 64.6766 78.6591 63.2012V63.2012C78.9302 61.7259 77.954 60.3101 76.4787 60.0389L75.8717 59.9274C74.0611 59.5946 72.8631 57.8571 73.1959 56.0465L73.3075 55.4392C73.5786 53.9639 72.6024 52.5481 71.1271 52.2769V52.2769C69.6517 52.0058 68.2359 52.982 67.9648 54.4573L67.8532 55.0645Z" fill="url(#paint3_linear_524_2643)"/>
</g>
<rect x="0.5" y="0.5" width="101" height="101" rx="37.5" stroke="white" stroke-opacity="0.3"/>
<defs>
<radialGradient id="paint0_radial_524_2643" cx="0" cy="0" r="1" gradientUnits="userSpaceOnUse" gradientTransform="translate(57.5597 30.0943) rotate(99.3819) scale(77.3596 95.2884)">
<stop stop-color="white"/>
<stop offset="0.348958" stop-color="#FAFAFA" stop-opacity="0.855607"/>
<stop offset="0.853426" stop-color="#D9D9D9" stop-opacity="0"/>
</radialGradient>
<linearGradient id="paint1_linear_524_2643" x1="27.6173" y1="47.6026" x2="30.3804" y2="63.1684" gradientUnits="userSpaceOnUse">
<stop stop-opacity="0"/>
<stop offset="1" stop-color="white"/>
</linearGradient>
<linearGradient id="paint2_linear_524_2643" x1="47.2316" y1="64.5717" x2="46.3711" y2="71.0226" gradientUnits="userSpaceOnUse">
<stop stop-opacity="0"/>
<stop offset="1" stop-color="white"/>
</linearGradient>
<linearGradient id="paint3_linear_524_2643" x1="68.1659" y1="49.8823" x2="66.0795" y2="69.8178" gradientUnits="userSpaceOnUse">
<stop stop-opacity="0"/>
<stop offset="1" stop-color="white"/>
</linearGradient>
<clipPath id="clip0_524_2643">
<rect x="1" y="1" width="100" height="100" rx="37" fill="white"/>
</clipPath>
</defs>
</svg>
