<svg width="56" height="50" viewBox="0 0 56 50" fill="none" xmlns="http://www.w3.org/2000/svg">
<path fill-rule="evenodd" clip-rule="evenodd" d="M15.9803 8.03952C7.15464 10.4044 1.91708 19.4761 4.28192 28.3018L7.14075 38.9711C9.42092 47.4808 20.2845 49.9844 26.0591 43.3309C28.9319 40.021 33.4965 38.734 37.6752 40.0557L38.1204 40.1965C46.9321 42.9837 55.3456 34.9369 52.9536 26.0099L52.2324 23.3183L50.2662 15.9803C47.9013 7.15464 38.8296 1.91708 30.0039 4.28192L15.9803 8.03952ZM17.6016 28.4197C19.6651 27.649 20.7132 25.3515 19.9425 23.288C19.1719 21.2245 16.8743 20.1764 14.8108 20.9471C12.7473 21.7177 11.6992 24.0153 12.4699 26.0788C13.2406 28.1423 15.5381 29.1904 17.6016 28.4197ZM29.1091 28.4059C30.9008 27.9258 31.9641 26.0841 31.484 24.2924L24.9956 26.031C25.4757 27.8227 27.3174 28.886 29.1091 28.4059ZM36.4143 13.1303C35.6819 13.3266 35.2473 14.0794 35.4435 14.8118L35.5243 15.1132C35.7651 16.0121 35.2317 16.936 34.3328 17.1768L34.0313 17.2576C33.2989 17.4539 32.8643 18.2067 33.0605 18.9391C33.2568 19.6715 34.0096 20.1061 34.742 19.9099L35.0435 19.8291C35.9424 19.5882 36.8663 20.1216 37.1071 21.0205L37.1879 21.3219C37.3841 22.0543 38.1369 22.4889 38.8693 22.2927C39.6017 22.0964 40.0364 21.3436 39.8401 20.6112L39.7594 20.3098C39.5185 19.4109 40.0519 18.4871 40.9507 18.2462L41.252 18.1655C41.9844 17.9693 42.4191 17.2164 42.2228 16.484C42.0266 15.7516 41.2738 15.317 40.5414 15.5132L40.2401 15.594C39.3413 15.8348 38.4174 15.3014 38.1765 14.4026L38.0958 14.1011C37.8995 13.3687 37.1467 12.9341 36.4143 13.1303Z" fill="url(#paint0_linear_224_187)"/>
<defs>
<linearGradient id="paint0_linear_224_187" x1="13.1846" y1="43.5821" x2="42.0695" y2="20.1329" gradientUnits="userSpaceOnUse">
<stop stop-color="#00F0FF"/>
<stop offset="1" stop-color="#99F9FF"/>
</linearGradient>
</defs>
</svg>
